inDegrees=yes
name=ik_OwnShooting_orientations
DataType=double
version=3
OpenSimVersion=4.3-2021-08-27-4bc7ad9
endheader
time	pelvis_tilt	pelvis_list	pelvis_rotation	pelvis_tx	pelvis_ty	pelvis_tz	hip_flexion_r	hip_adduction_r	hip_rotation_r	knee_angle_r	knee_angle_r_beta	ankle_angle_r	subtalar_angle_r	mtp_angle_r	hip_flexion_l	hip_adduction_l	hip_rotation_l	knee_angle_l	knee_angle_l_beta	ankle_angle_l	subtalar_angle_l	mtp_angle_l	lumbar_extension	lumbar_bending	lumbar_rotation	arm_flex_r	arm_add_r	arm_rot_r	elbow_flex_r	pro_sup_r	wrist_flex_r	wrist_dev_r	arm_flex_l	arm_add_l	arm_rot_l	elbow_flex_l	pro_sup_l	wrist_flex_l	wrist_dev_l
8.970000000000001	-7.259707548175728	-13.01346286683377	-98.82945594839765	0	0.9399999999999999	0	40.05172563442898	-10.40119758735672	0	58.3147120099855	1.017783726926527	-5.133532134719425	0	0	40.05172563442898	-10.40119758735672	0	58.3147120099855	1.017783726926527	-5.133532134719425	0	0	0.0006823105232980098	0.004522821446244962	-0.001588577090043416	-0.0007785579206779672	-0.002961954479905007	0.001109752348179402	76.79727449110626	46.4920143850462	0	0	0	-9.233621920067025	0	76.79727449110626	46.4920143850462	0	0
8.98	-7.238600910344632	-13.00844389226171	-98.87500647460706	0	0.9399999999999999	0	40.07299240387711	-10.39530297360688	0	58.3203809182566	1.017882668040851	-5.130990602961611	0	0	40.07299240387711	-10.39530297360688	0	58.3203809182566	1.017882668040851	-5.130990602961611	0	0	-0.0006492669191336816	0.01019690570302728	-0.0068606678894588	-0.0007521855551569147	-0.01901733007251808	9.212432439666457e-05	76.78957924518376	46.47457059190869	0	0	0	-9.246329732239996	0	76.78957924518376	46.47457059190869	0	0
8.99	-7.249143500740921	-13.00484229094397	-98.92438516222795	0	0.9399999999999999	0	40.10401696382537	-10.38828031750627	0	58.32881238370196	1.018029824873641	-5.128188335980398	0	0	40.10401696382537	-10.38828031750627	0	58.32881238370196	1.018029824873641	-5.128188335980398	0	0	0.004103045728587705	0.01134655640853435	0.01124921269033389	0.003305659779875478	0.004536057912165452	0.01426754359052403	76.77834118493874	46.45260021861403	0	0	0	-9.265707247095287	0	76.77834118493874	46.45260021861403	0	0
9	-7.242393825934963	-13.02316671566978	-98.92052217479308	0	0.9399999999999999	0	40.13049998286452	-10.38186699466767	0	58.33597149566092	1.018154774948844	-5.125548688059021	0	0	40.13049998286452	-10.38186699466767	0	58.33597149566092	1.018154774948844	-5.125548688059021	0	0	-0.001798710448435958	0.00287260501841327	-0.002290727955177005	-0.002277946397783493	-0.003488407154716974	-0.004332347393852068	76.76875021169874	46.43294585098064	0	0	0	-9.282051194554125	0	76.76875021169874	46.43294585098064	0	0
9.01	-7.239442203581369	-13.02791405304889	-98.97728759142717	0	0.9399999999999999	0	40.14840846524744	-10.37691255224569	0	58.34074606732261	1.018238106944713	-5.123414752908603	0	0	40.14840846524744	-10.37691255224569	0	58.34074606732261	1.018238106944713	-5.123414752908603	0	0	-0.002104948980328002	0.006272703225948245	-0.003574956228341033	-0.001866077347186987	-0.006863638930122834	0.00164587499026079	76.76227008616961	46.41827549960539	0	0	0	-9.292756638677144	0	76.76227008616961	46.41827549960539	0	0
9.02	-7.246199412522071	-13.05138993577187	-99.02066128776492	0	0.9399999999999999	0	40.18128037074144	-10.36912862183365	0	58.34964597338763	1.018393439608666	-5.120248751872144	0	0	40.18128037074144	-10.36912862183365	0	58.34964597338763	1.018393439608666	-5.120248751872144	0	0	-0.001693247015633785	0.008229349172883673	0.00263254040426479	-0.00213295982419705	-0.00439281499371898	0.004443571903156392	76.7503657802513	46.39424040640957	0	0	0	-9.313109279187231	0	76.7503657802513	46.39424040640957	0	0
9.029999999999999	-7.221491182011459	-13.06168449446831	-99.05600423709508	0	0.9399999999999999	0	40.20040861407284	-10.36409660354071	0	58.35477189924106	1.018482903892021	-5.11812184444602	0	0	40.20040861407284	-10.36409660354071	0	58.35477189924106	1.018482903892021	-5.11812184444602	0	0	0.0004054360068317989	0.01375147593371515	-0.004396667508398477	-0.000682703375113892	-0.01961734013623172	0.0006896962302364633	76.74344260851379	46.37913550028671	0	0	0	-9.324674775924057	0	76.74344260851379	46.37913550028671	0	0
9.039999999999999	-7.208271061223471	-13.06472488656795	-99.0538925373931	0	0.9399999999999999	0	40.22769370528712	-10.35747129283255	0	58.3621458977351	1.018611604444779	-5.1153884087157	0	0	40.22769370528712	-10.35747129283255	0	58.3621458977351	1.018611604444779	-5.1153884087157	0	0	-0.0002768211887728092	0.0008711366062336249	0.0008707001333004697	0.0001954222793539602	-0.001101849888940318	-0.0005735383351250116	76.73356176639464	46.35885868023507	0	0	0	-9.341525318614529	0	76.73356176639464	46.35885868023507	0	0
9.050000000000001	-7.212208264623057	-13.07835209727677	-99.07438819557224	0	0.9399999999999999	0	40.24727316045952	-10.35282327739814	0	58.36744882236541	1.018704157939563	-5.113491453189989	0	0	40.24727316045952	-10.35282327739814	0	58.36744882236541	1.018704157939563	-5.113491453189989	0	0	-0.002275580111918216	0.005170809418812621	0.0003527482734870298	-0.003233640688584925	0.002726307794941608	0.002324377267634854	76.72647050193221	46.34453231050491	0	0	0	-9.353660744595887	0	76.72647050193221	46.34453231050491	0	0
9.06	-7.215968464939535	-13.09976970145301	-99.09312701927904	0	0.9399999999999999	0	40.26758816373378	-10.34820650114217	0	58.372974109435	1.018800592391045	-5.11163880898537	0	0	40.26758816373378	-10.34820650114217	0	58.372974109435	1.018800592391045	-5.11163880898537	0	0	-0.00150611204047889	0.004204128318829721	0.0004591164863272796	-0.001806451840614839	0.006504591284465882	0.001091092915782823	76.71911148129735	46.33012855219645	0	0	0	-9.366370118514096	0	76.71911148129735	46.33012855219645	0	0
9.07	-7.199502261364521	-13.08676773926802	-99.09480879789099	0	0.9399999999999999	0	40.28408136344813	-10.34424211564117	0	58.3774382042646	1.018878505543943	-5.110012474568573	0	0	40.28408136344813	-10.34424211564117	0	58.3774382042646	1.018878505543943	-5.110012474568573	0	0	0.0002729424371192078	0.003116661280951368	-1.098765099127272e-05	0.001268513610322206	-0.002185670975807259	-0.0002724714570239446	76.71313862564213	46.31795330317433	0	0	0	-9.376570548431962	0	76.71313862564213	46.31795330317433	0	0
9.08	-7.179237672976291	-13.0625744327695	-99.15288043786461	0	0.9399999999999999	0	40.28415683380889	-10.34422417066186	0	58.37745960802705	1.01887887911007	-5.11000509077925	0	0	40.28415683380889	-10.34422417066186	0	58.37745960802705	1.01887887911007	-5.11000509077925	0	0	-0.005625702085559741	0.0008751546823962558	-0.01321282695460941	-0.001329178904708525	-0.002857215581227222	-0.00535930408351588	76.71311129547034	46.3178982695873	0	0	0	-9.37661831830545	0	76.71311129547034	46.3178982695873	0	0
9.09	-7.169804785169077	-13.04872406521224	-99.21735492828797	0	0.9399999999999999	0	40.30212611610637	-10.33970639758102	0	58.38229680370905	1.018963304101284	-5.108129904245659	0	0	40.30212611610637	-10.33970639758102	0	58.38229680370905	1.018963304101284	-5.108129904245659	0	0	-0.0001494037508490864	0.004263625456606175	-0.007801760190049779	0.002310219042015798	-0.00589377434694715	0.002251426430956408	76.70660629153892	46.30416367932426	0	0	0	-9.387590454510757	0	76.70660629153892	46.30416367932426	0	0
9.1	-7.136129399472487	-13.02037210356158	-99.21232244666557	0	0.9399999999999999	0	40.31324358115631	-10.33696466691812	0	58.38529671670583	1.019015662460352	-5.106999951176735	0	0	40.31324358115631	-10.33696466691812	0	58.38529671670583	1.019015662460352	-5.106999951176735	0	0	-0.005555585327910664	0.01248204658782975	-0.003464021706808477	5.498985815028514e-05	-0.01253290292082361	0.002811856179733984	76.70258133998783	46.29578524990624	0	0	0	-9.394409801174081	0	76.70258133998783	46.29578524990624	0	0
9.109999999999999	-7.139753388407049	-13.04096743632305	-99.268697112311	0	0.9399999999999999	0	40.31332204237506	-10.33694638097637	0	58.38531907835282	1.019016052744718	-5.106992482814338	0	0	40.31332204237506	-10.33694638097637	0	58.38531907835282	1.019016052744718	-5.106992482814338	0	0	0.001316632655052352	0.004731794834619285	-0.01510461319524533	0.002792865474779852	-0.01299893232256089	-0.00229597103419108	76.70255292433029	46.29572887267106	0	0	0	-9.394459743471291	0	76.70255292433029	46.29572887267106	0	0
9.119999999999999	-7.112589114371994	-13.05905554110228	-99.28289366574859	0	0.9399999999999999	0	40.3260325910884	-10.33386343890941	0	58.38875332972241	1.019075991738458	-5.105728561645332	0	0	40.3260325910884	-10.33386343890941	0	58.38875332972241	1.019075991738458	-5.105728561645332	0	0	0.004314124786515126	0.01229176333943582	-0.007763131842169898	0.002569940627603567	-0.01344391235793648	0.002237230395632571	76.69795073698816	46.2862684963032	0	0	0	-9.40228809851582	0	76.69795073698816	46.2862684963032	0	0
9.130000000000001	-7.078869677374519	-13.03312431794756	-99.26596771597617	0	0.9399999999999999	0	40.3338824423948	-10.33191849103867	0	58.39087032355083	1.019112940251009	-5.104926419530994	0	0	40.3338824423948	-10.33191849103867	0	58.39087032355083	1.019112940251009	-5.104926419530994	0	0	-0.002269668324883194	0.01701768580999986	-0.00195565479627713	-0.0002403507383043134	-0.0130262371290182	0.002696040529038146	76.69510887165342	46.28033020791097	0	-3.062762750395797e-49	0	-9.407095848363314	0	76.69510887165342	46.28033020791097	0	-3.062762750395797e-49
